# xmcd
#
# Track frame offsets: 
#        150
#        18652
#        37622
#        49057
#        65550
#        93202
#        108970
#        128532
#        143485
#
# Disc length: 2233 seconds
#
# Revision: 2
# Processed by: cddbd v1.5.2PL0 Copyright (c) Steve Scherf et al.
# Submitted via: ExactAudioCopy v1.3
#
DISCID=6708b709
DTITLE=Albert King - Blues for Elvis (King does The King's things)
DYEAR=1969
DGENRE=Rock and Roll
TTITLE0=Hound Dog
TTITLE1=That's All Right
TTITLE2=All Shook Up
TTITLE3=Jailhouse Rock
TTITLE4=Heartbreak Hotel
TTITLE5=Don't Be Cruel
TTITLE6=One Night
TTITLE7=Blue Suede Shoes
TTITLE8=Love Me Tender
EXTD=
EXTT0=
EXTT1=
EXTT2=
EXTT3=
EXTT4=
EXTT5=
EXTT6=
EXTT7=
EXTT8=
PLAYORDER=
